 
http://www.shotpix.com/images/79794142733357814726.jpg

 
http://www.imdb.com/title/tt1623205/



A small-time magician arrives in an enchanted land and is forced to decide if he will be a good man or a great one. 



Director:
 Sam Raimi

Writers:
 Mitchell Kapner (screenplay), David Lindsay-Abaire (screenplay)

 James Franco, Michelle Williams, Rachel Weisz

Genres:
 Adventure | Family | Fantasy 

Country:
USA

Language:
English 


Format                                   : AVI
Format/Info                              : Audio Video Interleave
File size                                : 697 MiB
Duration                                 : 2h 4mn
Overall bit rate                         : 785 Kbps
Writing application                      : Lavf54.59.103

Video
ID                                       : 0
Format                                   : MPEG-4 Visual
Format profile                           : Simple@L3
Format settings, BVOP                    : No
Format settings, QPel                    : No
Format settings, GMC                     : No warppoints
Format settings, Matrix                  : Default (H.263)
Codec ID                                 : XVID
Codec ID/Hint                            : XviD
Duration                                 : 2h 4mn
Bit rate                                 : 710 Kbps
Width                                    : 640 pixels
Height                                   : 240 pixels
Display aspect ratio                     : 2.588
Frame rate                               : 25.000 fps
Color space                              : YUV
Chroma subsampling                       : 4:2:0
Bit depth                                : 8 bits
Scan type                                : Progressive
Compression mode                         : Lossy
Bits/(Pixel*Frame)                       : 0.185
Stream size                              : 631 MiB (90%)
Writing library                          : XviD 64

Audio
ID                                       : 1
Format                                   : AC-3
Format/Info                              : Audio Coding 3
Mode extension                           : CM (complete main)
Format settings, Endianness              : Big
Codec ID                                 : 2000
Duration                                 : 2h 4mn
Bit rate mode                            : Constant
Bit rate                                 : 64.0 Kbps
Channel(s)                               : 2 channels
Channel positions                        : Front: L R
Sampling rate                            : 48.0 KHz
Bit depth                                : 16 bits
Compression mode                         : Lossy
Stream size                              : 56.9 MiB (8%)
Alignment                                : Aligned on interleaves
Interleave, duration                     : 32 ms (0.80 video frame)


 
http://www.shotpix.com/images/57075632090464896857.png 
http://www.shotpix.com/images/13891306916764370077.png 
http://www.shotpix.com/images/70884561670082500567.png 
http://www.shotpix.com/images/85002916643693082388.png 
http://www.shotpix.com/images/00845141888221106164.png
